<svg width="36" height="36" viewBox="0 0 36 36" fill="none" xmlns="http://www.w3.org/2000/svg" id="logo-icon">
<path d="M24.0469 0C33.8893 0 35.999 2.10975 35.999 11.9521V24.0479C35.999 33.8902 33.8893 36 24.0469 36H11.9512C2.109 36 3.88462e-06 33.8901 0 24.0479V11.9521C0 2.10983 2.10899 3.60988e-05 11.9512 0H24.0469ZM13.9668 6C7.40542 6.00003 5.99906 7.40639 5.99902 13.9678V22.0322C5.99905 27.9256 7.13366 29.66 12.1191 29.9521C13.0266 30.0053 13.6847 29.1101 13.4482 28.2324C12.7219 25.5361 11.586 20.3505 12.4814 16.9482C12.6235 16.4102 13.3014 16.4083 13.5361 16.9131C15.1573 20.3996 19.8227 30 22.0312 30C28.5926 30 29.999 28.5936 29.999 22.0322V13.9678C29.999 8.05137 28.8555 6.32594 23.8203 6.04395C22.9297 5.99407 22.2762 6.85915 22.4883 7.72559C23.1365 10.374 24.1701 15.4928 23.4727 18.9141C23.3576 19.4785 22.6556 19.5025 22.4121 18.9805C20.7473 15.4089 16.1533 6 13.9668 6Z" fill="currentColor"/>
</svg>
