<svg width="93" height="36" viewBox="0 0 93 36" fill="none" xmlns="http://www.w3.org/2000/svg">
<path d="M24.0469 0C33.8893 0 35.999 2.10975 35.999 11.9521V24.0479C35.999 33.8902 33.8893 36 24.0469 36H11.9512C2.109 36 -0.000972678 33.8901 -0.000976562 24.0479V11.9521C-0.000976562 2.10983 2.10899 3.60988e-05 11.9512 0H24.0469ZM13.9668 6C7.40542 6.00003 5.99906 7.40639 5.99902 13.9678V22.0322C5.99905 27.9256 7.13366 29.66 12.1191 29.9521C13.0266 30.0053 13.6847 29.1101 13.4482 28.2324C12.7219 25.5361 11.586 20.3505 12.4814 16.9482C12.6235 16.4102 13.3014 16.4083 13.5361 16.9131C15.1573 20.3996 19.8227 30 22.0312 30C28.5926 30 29.999 28.5936 29.999 22.0322V13.9678C29.999 8.05137 28.8555 6.32594 23.8203 6.04395C22.9297 5.99407 22.2762 6.85915 22.4883 7.72559C23.1365 10.374 24.1701 15.4928 23.4727 18.9141C23.3576 19.4785 22.6556 19.5025 22.4121 18.9805C20.7473 15.4089 16.1533 6 13.9668 6Z" fill="#27272A"/>
<g clip-path="url(#clip0_431_28)">
<path d="M45.023 18V6.64H47.247L50.399 13.984V6.64H52.575V18H50.351L47.199 10.656V18H45.023ZM58.3928 18.192C57.5821 18.192 56.8728 18.0107 56.2648 17.648C55.6568 17.2747 55.1821 16.752 54.8408 16.08C54.4994 15.408 54.3288 14.6187 54.3288 13.712C54.3288 12.7947 54.4994 12.0053 54.8408 11.344C55.1821 10.672 55.6568 10.1547 56.2648 9.792C56.8728 9.41867 57.5821 9.232 58.3928 9.232C59.2034 9.232 59.9128 9.41867 60.5208 9.792C61.1288 10.1547 61.6034 10.672 61.9448 11.344C62.2861 12.0053 62.4568 12.7947 62.4568 13.712C62.4568 14.6187 62.2861 15.408 61.9448 16.08C61.6034 16.752 61.1288 17.2747 60.5208 17.648C59.9128 18.0107 59.2034 18.192 58.3928 18.192ZM58.3928 16.272C58.9688 16.272 59.4114 16.0533 59.7208 15.616C60.0408 15.168 60.2008 14.5333 60.2008 13.712C60.2008 12.88 60.0408 12.2453 59.7208 11.808C59.4114 11.3707 58.9688 11.152 58.3928 11.152C57.8168 11.152 57.3688 11.3707 57.0488 11.808C56.7394 12.2453 56.5848 12.88 56.5848 13.712C56.5848 14.5333 56.7394 15.168 57.0488 15.616C57.3688 16.0533 57.8168 16.272 58.3928 16.272ZM69.1545 18C68.1945 18 67.4852 17.7813 67.0265 17.344C66.5785 16.9067 66.3545 16.2293 66.3545 15.312V7.408H68.5305V15.104C68.5305 15.4987 68.6212 15.792 68.8025 15.984C68.9945 16.176 69.2879 16.272 69.6825 16.272H71.6985V18H69.1545ZM63.8905 11.152V9.424H71.6985V11.152H63.8905ZM77.6443 18.192C76.8443 18.192 76.1349 18.0107 75.5163 17.648C74.9083 17.2747 74.4283 16.752 74.0763 16.08C73.7349 15.408 73.5643 14.6187 73.5643 13.712C73.5643 12.8267 73.7349 12.048 74.0763 11.376C74.4176 10.704 74.8923 10.1813 75.5003 9.808C76.1083 9.424 76.8123 9.232 77.6123 9.232C78.4016 9.232 79.0949 9.41867 79.6923 9.792C80.3003 10.1653 80.7749 10.6933 81.1163 11.376C81.4576 12.048 81.6283 12.8427 81.6283 13.76V14.304H75.8043C75.8576 14.944 76.0496 15.4347 76.3803 15.776C76.7216 16.1067 77.1589 16.272 77.6923 16.272C78.0869 16.272 78.4229 16.1813 78.7003 16C78.9776 15.808 79.1696 15.552 79.2763 15.232L81.4523 15.376C81.1643 16.272 80.6949 16.9653 80.0443 17.456C79.4043 17.9467 78.6043 18.192 77.6443 18.192ZM75.8363 12.816H79.3083C79.2549 12.2613 79.0736 11.8453 78.7643 11.568C78.4549 11.2907 78.0656 11.152 77.5963 11.152C77.1056 11.152 76.7056 11.296 76.3963 11.584C76.0976 11.8613 75.9109 12.272 75.8363 12.816ZM86.23 18.192C85.5474 18.192 84.95 18.016 84.438 17.664C83.926 17.312 83.526 16.8053 83.238 16.144C82.9607 15.472 82.822 14.6613 82.822 13.712C82.822 12.7627 82.9607 11.9573 83.238 11.296C83.526 10.624 83.926 10.112 84.438 9.76C84.95 9.408 85.5474 9.232 86.23 9.232C86.8274 9.232 87.3447 9.36533 87.782 9.632C88.2194 9.888 88.5394 10.224 88.742 10.64V6.64H90.918V18H88.838L88.774 16.64C88.5607 17.0987 88.2354 17.472 87.798 17.76C87.3714 18.048 86.8487 18.192 86.23 18.192ZM86.854 16.272C87.238 16.272 87.5687 16.176 87.846 15.984C88.134 15.7813 88.3527 15.488 88.502 15.104C88.662 14.72 88.742 14.256 88.742 13.712C88.742 13.1573 88.662 12.688 88.502 12.304C88.3527 11.92 88.134 11.632 87.846 11.44C87.5687 11.248 87.238 11.152 86.854 11.152C86.2674 11.152 85.8247 11.3707 85.526 11.808C85.2274 12.2453 85.078 12.88 85.078 13.712C85.078 14.5333 85.2274 15.168 85.526 15.616C85.8247 16.0533 86.2674 16.272 86.854 16.272Z" fill="#27272A"/>
<path d="M47.329 31.12C46.9624 31.12 46.6357 31.04 46.349 30.88C46.0624 30.7133 45.8424 30.4867 45.689 30.2L45.659 31H44.899V23.9H45.739V26.44C45.8724 26.22 46.079 26.0233 46.359 25.85C46.639 25.67 46.9624 25.58 47.329 25.58C47.7957 25.58 48.199 25.6933 48.539 25.92C48.879 26.1467 49.139 26.4667 49.319 26.88C49.5057 27.2933 49.599 27.7833 49.599 28.35C49.599 28.9167 49.5057 29.4067 49.319 29.82C49.139 30.2333 48.879 30.5533 48.539 30.78C48.199 31.0067 47.7957 31.12 47.329 31.12ZM47.279 30.32C47.7257 30.32 48.0757 30.1433 48.329 29.79C48.589 29.4367 48.719 28.9567 48.719 28.35C48.719 27.7367 48.589 27.2567 48.329 26.91C48.0757 26.5567 47.7324 26.38 47.299 26.38C46.9724 26.38 46.6924 26.46 46.459 26.62C46.2257 26.7733 46.0457 26.9967 45.919 27.29C45.799 27.5833 45.739 27.9367 45.739 28.35C45.739 28.75 45.799 29.1 45.919 29.4C46.0457 29.6933 46.2224 29.92 46.449 30.08C46.6824 30.24 46.959 30.32 47.279 30.32ZM51.3751 32.5V31.76H51.9851C52.1718 31.76 52.3085 31.73 52.3951 31.67C52.4885 31.6167 52.5585 31.5267 52.6051 31.4L52.7951 30.9H52.5051L50.5351 25.7H51.4551L53.0651 30.12L54.5751 25.7H55.4951L53.3451 31.67C53.2451 31.9567 53.0951 32.1667 52.8951 32.3C52.6951 32.4333 52.4185 32.5 52.0651 32.5H51.3751ZM62.3873 31V25.7H63.1573L63.1873 26.88L63.0873 26.86C63.1473 26.4667 63.274 26.1567 63.4673 25.93C63.6673 25.6967 63.9206 25.58 64.2273 25.58C64.5406 25.58 64.7806 25.6933 64.9473 25.92C65.1206 26.1467 65.2273 26.48 65.2673 26.92H65.1673C65.2273 26.5067 65.3606 26.18 65.5673 25.94C65.7806 25.7 66.0473 25.58 66.3673 25.58C66.794 25.58 67.104 25.7267 67.2973 26.02C67.4906 26.3133 67.5873 26.8 67.5873 27.48V31H66.7473V27.6C66.7473 27.1267 66.6973 26.7967 66.5973 26.61C66.4973 26.4167 66.3406 26.32 66.1273 26.32C65.9873 26.32 65.864 26.3667 65.7573 26.46C65.6506 26.5467 65.564 26.6867 65.4973 26.88C65.4373 27.0733 65.4073 27.32 65.4073 27.62V31H64.5673V27.6C64.5673 27.1467 64.5173 26.82 64.4173 26.62C64.324 26.42 64.1673 26.32 63.9473 26.32C63.8073 26.32 63.684 26.3667 63.5773 26.46C63.4706 26.5467 63.384 26.6867 63.3173 26.88C63.2573 27.0733 63.2273 27.32 63.2273 27.62V31H62.3873ZM70.2834 31.12C69.9501 31.12 69.6501 31.06 69.3834 30.94C69.1167 30.82 68.9067 30.6533 68.7534 30.44C68.6001 30.22 68.5234 29.9667 68.5234 29.68C68.5234 29.2267 68.6567 28.8767 68.9234 28.63C69.1967 28.3767 69.6234 28.1933 70.2034 28.08L71.9834 27.72C71.9834 27.2667 71.8801 26.93 71.6734 26.71C71.4734 26.49 71.1834 26.38 70.8034 26.38C70.4367 26.38 70.1501 26.4633 69.9434 26.63C69.7367 26.79 69.5934 27.0233 69.5134 27.33L68.6234 27.26C68.7234 26.76 68.9601 26.3567 69.3334 26.05C69.7134 25.7367 70.2034 25.58 70.8034 25.58C71.4434 25.58 71.9401 25.7733 72.2934 26.16C72.6467 26.54 72.8234 27.0667 72.8234 27.74V29.94C72.8234 30.06 72.8501 30.1433 72.9034 30.19C72.9567 30.2367 73.0367 30.26 73.1434 30.26H73.4834V31C73.4434 31.0067 73.3801 31.01 73.2934 31.01C73.2067 31.0167 73.1234 31.02 73.0434 31.02C72.8167 31.02 72.6234 30.9833 72.4634 30.91C72.3101 30.8367 72.1934 30.72 72.1134 30.56C72.0334 30.3933 71.9901 30.18 71.9834 29.92H72.1434C72.0967 30.1467 71.9834 30.3533 71.8034 30.54C71.6301 30.72 71.4101 30.8633 71.1434 30.97C70.8767 31.07 70.5901 31.12 70.2834 31.12ZM70.3634 30.38C70.7234 30.38 71.0234 30.32 71.2634 30.2C71.5034 30.0733 71.6834 29.9 71.8034 29.68C71.9234 29.4533 71.9834 29.1933 71.9834 28.9V28.44L70.3634 28.76C70.0034 28.8267 69.7534 28.93 69.6134 29.07C69.4734 29.2033 69.4034 29.38 69.4034 29.6C69.4034 29.8467 69.4867 30.04 69.6534 30.18C69.8267 30.3133 70.0634 30.38 70.3634 30.38ZM75.2295 31L74.1795 25.7H75.0995L75.7895 30.12L76.5695 26.44H77.3895L78.1695 30.12L78.8595 25.7H79.7795L78.7395 31H77.6795L76.9795 27.66L76.2795 31H75.2295ZM82.8156 31V25.74H80.9556V25H81.9156C82.1689 25 82.3723 24.9633 82.5256 24.89C82.6856 24.8167 82.7989 24.7 82.8656 24.54C82.9389 24.38 82.9756 24.1667 82.9756 23.9H83.6756V31H82.8156ZM80.5756 31V30.16H85.3756V31H80.5756ZM88.2717 31.12C87.9383 31.12 87.6383 31.06 87.3717 30.94C87.105 30.82 86.895 30.6533 86.7417 30.44C86.5883 30.22 86.5117 29.9667 86.5117 29.68C86.5117 29.2267 86.645 28.8767 86.9117 28.63C87.185 28.3767 87.6117 28.1933 88.1917 28.08L89.9717 27.72C89.9717 27.2667 89.8683 26.93 89.6617 26.71C89.4617 26.49 89.1717 26.38 88.7917 26.38C88.425 26.38 88.1383 26.4633 87.9317 26.63C87.725 26.79 87.5817 27.0233 87.5017 27.33L86.6117 27.26C86.7117 26.76 86.9483 26.3567 87.3217 26.05C87.7017 25.7367 88.1917 25.58 88.7917 25.58C89.4317 25.58 89.9283 25.7733 90.2817 26.16C90.635 26.54 90.8117 27.0667 90.8117 27.74V29.94C90.8117 30.06 90.8383 30.1433 90.8917 30.19C90.945 30.2367 91.025 30.26 91.1317 30.26H91.4717V31C91.4317 31.0067 91.3683 31.01 91.2817 31.01C91.195 31.0167 91.1117 31.02 91.0317 31.02C90.805 31.02 90.6117 30.9833 90.4517 30.91C90.2983 30.8367 90.1817 30.72 90.1017 30.56C90.0217 30.3933 89.9783 30.18 89.9717 29.92H90.1317C90.085 30.1467 89.9717 30.3533 89.7917 30.54C89.6183 30.72 89.3983 30.8633 89.1317 30.97C88.865 31.07 88.5783 31.12 88.2717 31.12ZM88.3517 30.38C88.7117 30.38 89.0117 30.32 89.2517 30.2C89.4917 30.0733 89.6717 29.9 89.7917 29.68C89.9117 29.4533 89.9717 29.1933 89.9717 28.9V28.44L88.3517 28.76C87.9917 28.8267 87.7417 28.93 87.6017 29.07C87.4617 29.2033 87.3917 29.38 87.3917 29.6C87.3917 29.8467 87.475 30.04 87.6417 30.18C87.815 30.3133 88.0517 30.38 88.3517 30.38Z" fill="#27272A"/>
</g>
<defs>
<clipPath id="clip0_431_28">
<rect width="49" height="32" fill="white" transform="translate(43.999 2)"/>
</clipPath>
</defs>
</svg>
