<svg width="36" height="36" viewBox="0 0 36 36" fill="none" xmlns="http://www.w3.org/2000/svg" id="logo-icon">
<path d="M0 11.952C0 2.10953 2.10953 0 11.952 0C15.2318 0 22.1218 14.1134 24.6191 19.4707C24.9842 20.2539 26.0378 20.2181 26.2104 19.3714C27.2568 14.2394 25.7065 6.56024 24.7342 2.58769C24.4161 1.28803 25.3958 -0.00831581 26.7317 0.0664948C34.2848 0.489459 36 3.07705 36 11.952V24.048C36 33.8905 33.8905 36 24.048 36C20.7351 36 13.738 21.5988 11.3063 16.3691C10.9541 15.6118 9.93549 15.6152 9.7229 16.4229C8.37969 21.5264 10.085 29.3043 11.1745 33.3487C11.5292 34.6653 10.5413 36.0082 9.18015 35.9285C1.70182 35.4903 0 32.8883 0 24.048V11.952Z" fill="currentColor"/>
</svg>
